<?xml version="1.0" encoding="UTF-8"?>
<svg id="Layer_1" data-name="Layer 1" xmlns="http://www.w3.org/2000/svg" viewBox="0 0 1280 1293.54">
  <defs>
    <style>
      .cls-1, .cls-2, .cls-3, .cls-4 {
        stroke-width: 0px;
      }

      .cls-2 {
        fill: #121212;
      }

      .cls-3 {
        fill: #9de4f9;
      }

      .cls-4 {
        fill: #ff5fd2;
      }
    </style>
  </defs>
  <rect class="cls-2" width="1280" height="1293.54"/>
  <path class="cls-3" d="m332.91,491.07v10.2h-173.34c11.93-6.45,26.11-10.2,42.03-10.2h131.31Zm580.85,0v10.2h220.1v-10.2h-220.1Zm-112.3,0h-136.16v10.2h179.71c-12.73-6.48-27.59-10.2-43.55-10.2Zm-401.78,0v10.2h218.24v-10.2h-218.24Zm447.3,227.4l46.24,49.06h-67.52l-44.55-49.06h65.82Zm148.1,0v49.06h56.7v-49.06h-56.7Zm-535.34,0h-60.06v49.06h218.24v-46.78h-158.18v-2.27Zm-330.91,49.06h144.75c38.11,0,67.36-19.67,80.18-49.06h-224.93v49.06Zm536.46,0h58.94v-49.06h-58.94v49.06Zm-312.81-84.14c0,12.64-2.49,24.5-7.11,35.08H120.46v-2.27h127.96c25.37,0,46.27-10.39,46.27-32.81,0-1.98-.16-3.87-.48-5.69h58.11c.13,1.87.18,3.77.18,5.69Zm447.66-5.69h-64.39l37.02,40.77h65.82l-38.45-40.77Zm186.54,0v40.77h56.7v-40.77h-56.7Zm-595.4,0v40.77h60.06v-40.77h-60.06Zm265.62,0v40.77h58.94v-40.77h-58.94Zm394.88-42.04v42.04h-56.7v-42.04h56.7Zm-250.33,17.51c21.25,0,40.54-6.59,55.46-17.51h-191.61v42.04h58.94v-21.92l19.91,21.92h64.39l-23.12-24.53h16.04Zm-401.78-17.51v42.04h60.06v-25.5h158.18v-16.54h-218.24Zm-52.53,0h-192.41c17.68,9.81,41.17,14.26,68.86,14.26h37.68c21.3,0,38.32,10.13,41.31,27.77h58.11c-.91-15.75-5.7-30-13.54-42.04Zm16.04,0h-192.41c-13.07-7.25-22.97-17.42-29.03-30.89h185.15c15.12,6.87,27.6,17.5,36.29,30.89Zm318.15-30.89v30.89h191.61c11.19-8.18,19.91-18.8,25.15-30.89h-216.77Zm-205.55,1.3v-1.3h-60.06v30.89h218.24v-29.59h-158.18Zm535.34-1.3v30.89h56.7v-30.89h-56.7Zm-391.53-83.13v16.21h-158.18v66.92h-60.06v-83.13h218.24Zm-392.09,23.35h107.07v-23.35h-197.66c-10.59,13.42-16.47,30.06-16.47,47.39,0,13.84,2.4,25.71,6.94,35.74h185.15c-12.46-5.67-26.7-8.78-42.12-8.78h-57.08c-18.28,0-29.47-10.72-29.47-24.35,0-23.07,19.4-26.65,43.65-26.65Zm645.13-23.35h-205.66v83.13h216.77c3.6-8.29,5.57-17.28,5.57-26.65v-12.02c0-16.61-6.16-32-16.68-44.47Zm42.79,0v20.43h81.33v62.7h56.7v-62.7h82.07v-20.43h-220.1Zm201.8-20.05v20.37h-220.1v-20.37h220.1Zm-734.17,0v20.37h218.24v-20.37h-218.24Zm445.33,0h-179.71v20.37h205.66c-6.93-8.23-15.76-15.19-25.96-20.37Zm-685.44,0c-9.68,5.21-17.87,12.2-24.32,20.37h197.66v-20.37h-173.34Z"/>
  <path class="cls-1" d="m353.35,494.34v10.2h-173.34c11.93-6.45,26.11-10.2,42.03-10.2h131.31Zm580.85,0v10.2h220.1v-10.2h-220.1Zm-112.3,0h-136.16v10.2h179.71c-12.73-6.48-27.59-10.2-43.55-10.2Zm-401.78,0v10.2h218.24v-10.2h-218.24Zm447.3,227.4l46.24,49.06h-67.52l-44.55-49.06h65.82Zm148.1,0v49.06h56.7v-49.06h-56.7Zm-535.34,0h-60.06v49.06h218.24v-46.78h-158.18v-2.27Zm-330.91,49.06h144.75c38.11,0,67.36-19.67,80.18-49.06h-224.93v49.06Zm536.46,0h58.94v-49.06h-58.94v49.06Zm-312.81-84.14c0,12.64-2.49,24.5-7.11,35.08h-224.93v-2.27h127.96c25.37,0,46.27-10.39,46.27-32.81,0-1.98-.16-3.87-.48-5.69h58.11c.13,1.87.18,3.77.18,5.69Zm447.66-5.69h-64.39l37.02,40.77h65.82l-38.45-40.77Zm186.54,0v40.77h56.7v-40.77h-56.7Zm-595.4,0v40.77h60.06v-40.77h-60.06Zm265.62,0v40.77h58.94v-40.77h-58.94Zm394.88-42.04v42.04h-56.7v-42.04h56.7Zm-250.33,17.51c21.25,0,40.54-6.59,55.46-17.51h-191.61v42.04h58.94v-21.92l19.91,21.92h64.39l-23.12-24.53h16.04Zm-401.78-17.51v42.04h60.06v-25.5h158.18v-16.54h-218.24Zm-52.53,0h-192.41c17.68,9.81,41.17,14.26,68.86,14.26h37.68c21.3,0,38.32,10.13,41.31,27.77h58.11c-.91-15.75-5.7-30-13.54-42.04Zm16.04,0h-192.41c-13.07-7.25-22.97-17.42-29.03-30.89h185.15c15.12,6.87,27.6,17.5,36.29,30.89Zm318.15-30.89v30.89h191.61c11.19-8.18,19.91-18.8,25.15-30.89h-216.77Zm-205.55,1.3v-1.3h-60.06v30.89h218.24v-29.59h-158.18Zm535.34-1.3v30.89h56.7v-30.89h-56.7Zm-391.53-83.13v16.21h-158.18v66.92h-60.06v-83.13h218.24Zm-392.09,23.35h107.07v-23.35h-197.66c-10.59,13.42-16.47,30.06-16.47,47.39,0,13.84,2.4,25.71,6.94,35.74h185.15c-12.46-5.67-26.7-8.78-42.12-8.78h-57.08c-18.28,0-29.47-10.72-29.47-24.35,0-23.07,19.4-26.65,43.65-26.65Zm645.13-23.35h-205.66v83.13h216.77c3.6-8.29,5.57-17.28,5.57-26.65v-12.02c0-16.61-6.16-32-16.68-44.47Zm42.79,0v20.43h81.33v62.7h56.7v-62.7h82.07v-20.43h-220.1Zm201.8-20.05v20.37h-220.1v-20.37h220.1Zm-734.17,0v20.37h218.24v-20.37h-218.24Zm445.33,0h-179.71v20.37h205.66c-6.93-8.23-15.76-15.19-25.96-20.37Zm-685.44,0c-9.68,5.21-17.87,12.2-24.32,20.37h197.66v-20.37h-173.34Z"/>
  <path class="cls-4" d="m365.8,497.44v10.2h-173.34c11.93-6.45,26.11-10.2,42.03-10.2h131.31Zm580.85,0v10.2h220.1v-10.2h-220.1Zm-112.3,0h-136.16v10.2h179.71c-12.73-6.48-27.59-10.2-43.55-10.2Zm-401.78,0v10.2h218.24v-10.2h-218.24Zm447.3,227.4l46.24,49.06h-67.52l-44.55-49.06h65.82Zm148.1,0v49.06h56.7v-49.06h-56.7Zm-535.34,0h-60.06v49.06h218.24v-46.78h-158.18v-2.27Zm-330.91,49.06h144.75c38.11,0,67.36-19.67,80.18-49.06h-224.93v49.06Zm536.46,0h58.94v-49.06h-58.94v49.06Zm-312.81-84.14c0,12.64-2.49,24.5-7.11,35.08h-224.93v-2.27h127.96c25.37,0,46.27-10.39,46.27-32.81,0-1.98-.16-3.87-.48-5.69h58.11c.13,1.87.18,3.77.18,5.69Zm447.66-5.69h-64.39l37.02,40.77h65.82l-38.45-40.77Zm186.54,0v40.77h56.7v-40.77h-56.7Zm-595.4,0v40.77h60.06v-40.77h-60.06Zm265.62,0v40.77h58.94v-40.77h-58.94Zm394.88-42.04v42.04h-56.7v-42.04h56.7Zm-250.33,17.51c21.25,0,40.54-6.59,55.46-17.51h-191.61v42.04h58.94v-21.92l19.91,21.92h64.39l-23.12-24.53h16.04Zm-401.78-17.51v42.04h60.06v-25.5h158.18v-16.54h-218.24Zm-52.53,0h-192.41c17.68,9.81,41.17,14.26,68.86,14.26h37.68c21.3,0,38.32,10.13,41.31,27.77h58.11c-.91-15.75-5.7-30-13.54-42.04Zm16.04,0h-192.41c-13.07-7.25-22.97-17.42-29.03-30.89h185.15c15.12,6.87,27.6,17.5,36.29,30.89Zm318.15-30.89v30.89h191.61c11.19-8.18,19.91-18.8,25.15-30.89h-216.77Zm-205.55,1.3v-1.3h-60.06v30.89h218.24v-29.59h-158.18Zm535.34-1.3v30.89h56.7v-30.89h-56.7Zm-391.53-83.13v16.21h-158.18v66.92h-60.06v-83.13h218.24Zm-392.09,23.35h107.07v-23.35h-197.66c-10.59,13.42-16.47,30.06-16.47,47.39,0,13.84,2.4,25.71,6.94,35.74h185.15c-12.46-5.67-26.7-8.78-42.12-8.78h-57.08c-18.28,0-29.47-10.72-29.47-24.35,0-23.07,19.4-26.65,43.65-26.65Zm645.13-23.35h-205.66v83.13h216.77c3.6-8.29,5.57-17.28,5.57-26.65v-12.02c0-16.61-6.16-32-16.68-44.47Zm42.79,0v20.43h81.33v62.7h56.7v-62.7h82.07v-20.43h-220.1Zm201.8-20.05v20.37h-220.1v-20.37h220.1Zm-734.17,0v20.37h218.24v-20.37h-218.24Zm445.33,0h-179.71v20.37h205.66c-6.93-8.23-15.76-15.19-25.96-20.37Zm-685.44,0c-9.68,5.21-17.87,12.2-24.32,20.37h197.66v-20.37h-173.34Z"/>
</svg>