<?xml version="1.0" encoding="utf-8"?>
<!-- Generator: Adobe Illustrator 27.9.0, SVG Export Plug-In . SVG Version: 6.00 Build 0)  -->
<svg version="1.1" id="Layer_1" xmlns="http://www.w3.org/2000/svg" xmlns:xlink="http://www.w3.org/1999/xlink" x="0px" y="0px"
	 viewBox="0 0 1280 1280" style="enable-background:new 0 0 1280 1280;" xml:space="preserve">
<style type="text/css">
	.st0{fill:#121212;}
	.st1{fill:#9DE4F9;}
	.st2{fill:#FF5FD2;}
</style>
<rect y="-6.77" class="st0" width="1280" height="1293.54"/>
<path class="st1" d="M496.59,270.1c-42.4,0-80.18,9.99-111.95,27.17h461.71V270.1H496.59z M302.81,875.81v130.68h385.56
	c93.97,0,167.76-44.94,205.26-113.71c3.01-5.49,5.78-11.16,8.31-16.97H302.81z M898.03,767.22H743.27
	c0.83,4.85,1.25,9.88,1.25,15.16c0,59.72-55.64,87.39-123.22,87.39H280.46v6.05h599.13c12.09-27.7,18.7-58.65,18.91-91.66
	c0.03-0.59,0.03-1.2,0.03-1.78C898.53,777.26,898.37,772.2,898.03,767.22z M1006.41,767.22h-4.53v16.94h6.1
	C1007.66,778.43,1007.13,772.79,1006.41,767.22z M894.32,672.21c-3.09-5.83-6.42-11.48-9.99-16.97H371.8
	c35.59,19.74,79.99,31.35,131.37,35.85c16.65,1.44,34.01,2.16,52.05,2.16h100.37c26.48,0,50.48,5.89,69.36,16.94
	c21.55,12.6,36.41,31.96,40.67,57.03h154.76C918.38,732.43,909.29,700.41,894.32,672.21z M861.37,589.93
	c-9.24-5.99-18.99-11.37-29.22-16.12c-0.59-0.29-1.2-0.56-1.78-0.83H337.22c16.11,35.85,42.48,62.97,77.3,82.25h512.54
	C910.15,629.19,887.85,607.08,861.37,589.93z M324.33,351.53c-0.24,0.29-0.45,0.59-0.67,0.88c-27.81,35.61-43.2,79.59-43.2,125.35
	c0,36.89,6.39,68.48,18.49,95.22h493.17c-4.93-2.26-9.99-4.34-15.13-6.29c-29.41-11.11-62.12-17.1-97.09-17.1H527.86
	c-48.66,0-78.5-28.55-78.5-64.89c0-61.45,51.7-70.99,116.27-70.99h285.2v-62.2H324.33z M340.37,298.13
	c-25.78,13.9-47.6,32.5-64.81,54.28h526.49v-54.28H340.37z"/>
<path d="M394.81,306.84c-25.78,13.88-47.6,32.5-64.78,54.26h526.49v-54.26H394.81z M620.08,422.44h285.2v-62.2H378.78
	c-0.21,0.29-0.45,0.56-0.67,0.85c-27.78,35.59-43.2,79.59-43.2,125.38c0,36.86,6.39,68.48,18.49,95.2h493.17
	c-33.19-15.08-71.12-23.39-112.19-23.39H582.33c-48.69,0-78.5-28.55-78.5-64.86C503.83,431.97,555.51,422.44,620.08,422.44z
	 M884.81,581.67H391.67c16.11,35.88,42.48,62.97,77.3,82.28H981.5C958.33,628.28,925.09,599.97,884.81,581.67z M938.78,663.95
	H426.24c47.09,26.13,109.66,37.98,183.42,37.98h100.37c56.74,0,102.04,27.01,110.03,74h154.78
	C972.42,733.98,959.66,696.02,938.78,663.95z M952.47,775.93H797.71c0.83,4.82,1.25,9.88,1.25,15.13
	c0,59.72-55.64,87.42-123.22,87.42H334.91v6.05h599.13c12.31-28.21,18.94-59.77,18.94-93.47
	C952.98,785.97,952.82,780.91,952.47,775.93z M357.25,884.52v130.65h385.59c101.51,0,179.42-52.39,213.54-130.65H357.25z
	 M551.03,278.81c-42.4,0-80.18,9.99-111.93,27.17H900.8v-27.17H551.03z"/>
<path class="st2" d="M584.2,287.07c-25.46,0-49.25,3.6-71.07,10.2c-0.96,0.27-1.89,0.56-2.85,0.85
	c-13.48,4.26-26.18,9.67-38.04,16.09h461.71v-27.14H584.2z M390.42,892.78v130.65h385.56c101.51,0,179.45-52.39,213.57-130.65
	H390.42z M985.63,784.16H830.85c0.85,4.85,1.28,9.88,1.28,15.16c0,38.3-22.91,63.42-57.16,76.5c-19.12,7.33-41.82,10.89-66.06,10.89
	H368.07v6.07H967.2c12.31-28.21,18.94-59.8,18.94-93.47C986.14,794.23,985.98,789.17,985.63,784.16z M1006.41,767.22
	c-4.47-35.24-16.46-67.34-34.49-95.01H459.41c13.37,7.43,27.99,13.69,43.76,18.89c39.77,13.03,86.83,19.1,139.65,19.1h100.34
	c49.54,0,90.38,20.59,105.27,57.03c2.16,5.33,3.78,10.97,4.79,16.94h154.76C1007.66,778.43,1007.13,772.79,1006.41,767.22z
	 M917.98,589.93H424.83c11.85,26.4,29.25,48.03,51.49,65.31c7.99,6.21,16.59,11.85,25.81,16.97h512.54
	C991.49,636.54,958.25,608.23,917.98,589.93z M653.24,430.7h285.2v-62.2H411.94c-0.21,0.29-0.45,0.56-0.67,0.85
	c-27.78,35.59-43.2,79.59-43.2,125.38c0,29.35,4.05,55.38,11.83,78.26c1.97,5.86,4.21,11.51,6.66,16.94h493.17
	c-14.94-6.82-30.84-12.23-47.57-16.12c-1.23-0.29-2.45-0.59-3.68-0.83c-16.43-3.6-33.64-5.73-51.49-6.29
	c-3.14-0.11-6.31-0.16-9.48-0.16H615.47c-22.99,0-41.79-6.37-55.22-16.94c-14.97-11.77-23.28-28.79-23.28-47.95
	C536.97,440.23,588.67,430.7,653.24,430.7z M427.97,315.09c-18.41,9.91-34.79,22.24-48.93,36.44c-0.29,0.27-0.59,0.56-0.88,0.88
	c-5.33,5.38-10.33,11.03-15,16.94h526.49v-54.26H427.97z"/>
</svg>
